<?xml version="1.0" encoding="UTF-8" standalone="no"?>
<svg width="28px" height="28px" viewBox="0 0 28 28" version="1.1" xmlns="http://www.w3.org/2000/svg" xmlns:xlink="http://www.w3.org/1999/xlink">
    <!-- Generator: Sketch 40.3 (33839) - http://www.bohemiancoding.com/sketch -->
    <title>Twitter</title>
    <desc>Created with Sketch.</desc>
    <defs></defs>
    <g id="Welcome" stroke="none" stroke-width="1" fill="none" fill-rule="evenodd">
        <g id="Spoon_home_page_v002" transform="translate(-378.000000, -5294.000000)" fill="#FFFFFF">
            <g id="Twitter" transform="translate(378.000000, 5294.000000)">
                <path d="M25.2,0 L2.8,0 C1.26,0 0,1.26 0,2.8 L0,25.2 C0,26.74 1.26,28 2.8,28 L25.2,28 C26.74,28 28,26.74 28,25.2 L28,2.8 C28,1.26 26.74,0 25.2,0 L25.2,0 Z M21.84,9.52 L21.84,10.08 C21.84,15.4 17.78,21.56 10.36,21.56 C8.12,21.56 6.02,20.86 4.2,19.74 L5.18,19.74 C7,19.74 8.82,19.04 10.22,18.06 C8.4,18.06 7,16.8 6.44,15.26 C6.72,15.26 7,15.4 7.14,15.4 C7.56,15.4 7.84,15.4 8.26,15.26 C6.44,14.84 5.04,13.3 5.04,11.34 L5.04,11.34 C5.6,11.62 6.16,11.76 6.86,11.9 C5.74,10.92 5.04,9.8 5.04,8.4 C5.04,7.7 5.18,7 5.6,6.44 C7.56,8.82 10.5,10.5 13.86,10.64 C13.86,10.36 13.72,10.08 13.72,9.66 C13.72,7.42 15.54,5.6 17.78,5.6 C18.9,5.6 20.02,6.02 20.72,6.86 C21.7,6.72 22.54,6.3 23.24,5.88 C22.96,6.86 22.26,7.56 21.42,8.12 C22.26,7.98 22.96,7.84 23.8,7.42 C23.24,8.26 22.54,8.96 21.84,9.52 L21.84,9.52 Z" id="Shape"></path>
            </g>
        </g>
    </g>
</svg>