<?xml version="1.0" encoding="UTF-8" standalone="no"?>
<svg width="28px" height="28px" viewBox="0 0 28 28" version="1.1" xmlns="http://www.w3.org/2000/svg" xmlns:xlink="http://www.w3.org/1999/xlink">
    <!-- Generator: Sketch 40.3 (33839) - http://www.bohemiancoding.com/sketch -->
    <title>LinkedIn</title>
    <desc>Created with Sketch.</desc>
    <defs></defs>
    <g id="Welcome" stroke="none" stroke-width="1" fill="none" fill-rule="evenodd">
        <g id="Spoon_home_page_v002" transform="translate(-419.000000, -5294.000000)" fill="#FFFFFF">
            <g id="LinkedIn" transform="translate(419.000000, 5294.000000)">
                <path d="M25.2,0 L2.8,0 C1.26,0 0,1.26 0,2.8 L0,25.2 C0,26.74 1.26,28 2.8,28 L25.2,28 C26.74,28 28,26.74 28,25.2 L28,2.8 C28,1.26 26.74,0 25.2,0 L25.2,0 Z M8.54,22.4 L4.2,22.4 L4.2,10.36 L8.54,10.36 L8.54,22.4 L8.54,22.4 Z M6.3,8.96 L6.3,8.96 C5.04,8.96 4.2,8.12 4.2,7 C4.2,5.88 5.04,5.04 6.44,5.04 C7.7,5.04 8.54,5.88 8.54,7 C8.54,8.12 7.7,8.96 6.3,8.96 L6.3,8.96 Z M23.8,22.4 L19.46,22.4 L19.46,15.82 C19.46,14 18.34,13.58 17.92,13.58 C17.5,13.58 16.1,13.86 16.1,15.82 L16.1,22.4 L11.76,22.4 L11.76,10.36 L16.1,10.36 L16.1,12.04 C16.66,11.06 17.78,10.36 19.88,10.36 C21.98,10.36 23.66,12.04 23.66,15.82 L23.66,22.4 L23.8,22.4 Z" id="Shape"></path>
            </g>
        </g>
    </g>
</svg>