<?xml version="1.0" encoding="UTF-8" standalone="no"?>
<svg width="28px" height="28px" viewBox="0 0 28 28" version="1.1" xmlns="http://www.w3.org/2000/svg" xmlns:xlink="http://www.w3.org/1999/xlink">
    <!-- Generator: Sketch 40.3 (33839) - http://www.bohemiancoding.com/sketch -->
    <title>Instagram Old_2</title>
    <desc>Created with Sketch.</desc>
    <defs></defs>
    <g id="Welcome" stroke="none" stroke-width="1" fill="none" fill-rule="evenodd">
        <g id="Spoon_home_page_v002" transform="translate(-460.000000, -5294.000000)" fill="#FFFFFF">
            <g id="Instagram-Old_2" transform="translate(460.000000, 5294.000000)">
                <path d="M5.25,0 C2.34984615,0 0,2.34984615 0,5.25 L0,22.75 C0,25.6501538 2.34984615,28 5.25,28 L22.75,28 C25.6501538,28 28,25.6501538 28,22.75 L28,5.25 C28,2.34984615 25.6501538,0 22.75,0 L5.25,0 L5.25,0 Z M5.25,2.15384615 L22.75,2.15384615 C24.458,2.15384615 25.8461538,3.54307692 25.8461538,5.25 L25.8461538,9.69230769 L21.4375,9.69230769 C19.9445798,7.12314917 17.1792018,5.38461538 14,5.38461538 C10.8207982,5.38461538 8.05542048,7.12314917 6.5625,9.69230769 L2.15384615,9.69230769 L2.15384615,5.25 C2.15384615,3.54307692 3.54307692,2.15384615 5.25,2.15384615 L5.25,2.15384615 Z M21.5384615,3.23076923 C20.9450769,3.23076923 20.4615385,3.71430769 20.4615385,4.30769231 L20.4615385,6.46153846 C20.4615385,7.05492308 20.9450769,7.53846154 21.5384615,7.53846154 L23.6923077,7.53846154 C24.2856923,7.53846154 24.7692308,7.05492308 24.7692308,6.46153846 L24.7692308,4.30769231 C24.7692308,3.71430769 24.2856923,3.23076923 23.6923077,3.23076923 L21.5384615,3.23076923 L21.5384615,3.23076923 Z M14,7.53846154 C15.91247,7.53846154 17.6292803,8.37139843 18.8125,9.69230769 C18.8230495,9.70408535 18.8356894,9.71410623 18.8461538,9.72596154 C18.8946197,9.78081871 18.9341406,9.8377706 18.9807692,9.89423077 C19.1124662,10.0537894 19.2348272,10.227162 19.3509615,10.3990385 C19.3971152,10.467546 19.4420025,10.5306499 19.4855769,10.6009615 C19.6576272,10.8785826 19.8276378,11.1726935 19.9567308,11.4759615 C19.9801678,11.5310203 20.0021026,11.5884031 20.0240385,11.6442308 C20.0788905,11.7846583 20.1135437,11.9367231 20.1586538,12.0817308 C20.196484,12.2023968 20.2288294,12.3283095 20.2596154,12.4519231 C20.279462,12.5327214 20.3101489,12.6055386 20.3269231,12.6875 C20.3341762,12.7222588 20.3538892,12.7534971 20.3605769,12.7884615 C20.3938538,12.9656811 20.4093982,13.1449166 20.4278846,13.3269231 C20.4514714,13.5504331 20.4615385,13.7700888 20.4615385,14 C20.4615385,15.3383462 20.0478988,16.5697022 19.3509615,17.6009615 C18.3055557,19.1478495 16.6272508,20.2293678 14.6730769,20.4278846 C14.4559466,20.4499422 14.2229231,20.4615385 14,20.4615385 C11.993086,20.4615385 10.2045011,19.5417977 9.01923077,18.1057692 C8.88753406,17.9462102 8.76517266,17.7728385 8.64903846,17.6009615 C7.95223348,16.5697022 7.53846154,15.3383462 7.53846154,14 C7.53846154,13.7991926 7.55418892,13.5903611 7.57211538,13.3942308 C7.57422292,13.3720548 7.56978266,13.3490312 7.57211538,13.3269231 C7.57795963,13.2693852 7.59842515,13.2157351 7.60576923,13.1586538 C7.62661415,13.0011743 7.64102726,12.8411349 7.67307692,12.6875 C7.70662598,12.5235783 7.76198446,12.3754874 7.80769231,12.2163462 C7.82045374,12.1723345 7.82767483,12.1253483 7.84134615,12.0817308 C7.85813118,12.0277748 7.85684878,11.9668015 7.875,11.9134615 C7.91371506,11.800502 7.96489217,11.6869598 8.00961538,11.5769231 C8.02273166,11.5444474 8.02964292,11.5081723 8.04326923,11.4759615 C8.17236237,11.1726462 8.3423732,10.8785395 8.51442308,10.6009615 C8.55799722,10.5306608 8.6028852,10.4675269 8.64903846,10.3990385 C8.80547802,10.1675107 8.96950858,9.93479695 9.15384615,9.72596154 C9.16444103,9.71398023 9.17681875,9.7042106 9.1875,9.69230769 C10.3707201,8.37139843 12.08753,7.53846154 14,7.53846154 L14,7.53846154 Z M14,9.89423077 C13.2181538,9.89423077 12.5011923,10.1230769 11.8798077,10.5 C12.0736538,10.4396923 12.2734231,10.3990385 12.4855769,10.3990385 C13.6357308,10.3990385 14.5721154,11.3343462 14.5721154,12.4855769 C14.5721154,13.6335769 13.6357308,14.5721154 12.4855769,14.5721154 C11.3354231,14.5721154 10.3990385,13.6346538 10.3990385,12.4855769 C10.3990385,12.2712692 10.4407692,12.0725769 10.5,11.8798077 C10.1209231,12.5011923 9.89423077,13.2181538 9.89423077,14 C9.89423077,16.2690769 11.7298462,18.1057692 14,18.1057692 C16.2669231,18.1057692 18.1057692,16.2701538 18.1057692,14 C18.1057692,11.7298462 16.2669231,9.89423077 14,9.89423077 L14,9.89423077 Z" id="Shape"></path>
            </g>
        </g>
    </g>
</svg>