<?xml version="1.0" encoding="UTF-8" standalone="no"?>
<svg width="28px" height="28px" viewBox="0 0 28 28" version="1.1" xmlns="http://www.w3.org/2000/svg" xmlns:xlink="http://www.w3.org/1999/xlink">
    <!-- Generator: Sketch 40.3 (33839) - http://www.bohemiancoding.com/sketch -->
    <title>Facebook</title>
    <desc>Created with Sketch.</desc>
    <defs></defs>
    <g id="Welcome" stroke="none" stroke-width="1" fill="none" fill-rule="evenodd">
        <g id="Spoon_home_page_v002" transform="translate(-337.000000, -5294.000000)" fill="#FFFFFF">
            <g id="Facebook" transform="translate(337.000000, 5294.000000)">
                <path d="M25.2,0 L2.8,0 C1.26,0 0,1.26 0,2.8 L0,25.2 C0,26.74 1.26,28 2.8,28 L25.2,28 C26.74,28 28,26.74 28,25.2 L28,2.8 C28,1.26 26.74,0 25.2,0 L25.2,0 Z M22.96,7.56 L21,7.56 C19.74,7.56 19.6,7.98 19.6,8.96 L19.6,10.78 L22.54,10.78 L22.4,14 L19.74,14 L19.74,23.8 L15.26,23.8 L15.26,14 L13.58,14 L13.58,10.64 L15.26,10.64 L15.26,8.54 C15.26,5.74 16.38,4.2 19.6,4.2 L22.96,4.2 L22.96,7.56 L22.96,7.56 Z" id="Shape"></path>
            </g>
        </g>
    </g>
</svg>